<?xml version="1.0" encoding="UTF-8" standalone="no"?>
<!-- Created with Inkscape (http://www.inkscape.org/) -->

<svg
   xmlns:dc="http://purl.org/dc/elements/1.1/"
   xmlns:cc="http://creativecommons.org/ns#"
   xmlns:rdf="http://www.w3.org/1999/02/22-rdf-syntax-ns#"
   xmlns:svg="http://www.w3.org/2000/svg"
   xmlns="http://www.w3.org/2000/svg"
   xmlns:sodipodi="http://sodipodi.sourceforge.net/DTD/sodipodi-0.dtd"
   xmlns:inkscape="http://www.inkscape.org/namespaces/inkscape"
   width="2400"
   height="1024"
   viewBox="0 0 2400 1023.9999"
   id="svg2"
   version="1.1"
   inkscape:version="0.91 r13725"
   sodipodi:docname="Audilis.svg"
   inkscape:export-filename="/home/daniel/Design/Logos/Audilis.png"
   inkscape:export-xdpi="86.699997"
   inkscape:export-ydpi="86.699997">
  <defs
     id="defs4">
    <filter
       style="color-interpolation-filters:sRGB"
       inkscape:label="Colorize"
       id="filter4591">
      <feFlood
         flood-opacity="1"
         flood-color="rgb(255,255,255)"
         result="flood"
         id="feFlood4593" />
      <feComposite
         in="flood"
         in2="SourceGraphic"
         operator="in"
         result="composite1"
         id="feComposite4595" />
      <feGaussianBlur
         in="composite1"
         stdDeviation="12"
         result="blur"
         id="feGaussianBlur4597" />
      <feOffset
         dx="0"
         dy="0"
         result="offset"
         id="feOffset4599" />
      <feComposite
         in="SourceGraphic"
         in2="offset"
         operator="over"
         result="fbSourceGraphic"
         id="feComposite4601" />
      <feColorMatrix
         result="fbSourceGraphicAlpha"
         in="fbSourceGraphic"
         values="0 0 0 -1 0 0 0 0 -1 0 0 0 0 -1 0 0 0 0 1 0"
         id="feColorMatrix4663" />
      <feComposite
         id="feComposite4665"
         in2="fbSourceGraphic"
         operator="arithmetic"
         k1="0"
         k2="1"
         result="composite1"
         in="fbSourceGraphic"
         k3="0"
         k4="0" />
      <feColorMatrix
         id="feColorMatrix4667"
         in="composite1"
         values="1"
         type="saturate"
         result="colormatrix1" />
      <feFlood
         id="feFlood4669"
         flood-opacity="1"
         flood-color="rgb(121,236,40)"
         result="flood1" />
      <feBlend
         id="feBlend4671"
         in2="colormatrix1"
         in="flood1"
         mode="multiply"
         result="blend1" />
      <feBlend
         id="feBlend4673"
         in2="blend1"
         mode="screen"
         result="blend2" />
      <feColorMatrix
         id="feColorMatrix4675"
         in="blend2"
         values="1"
         type="saturate"
         result="colormatrix2" />
      <feComposite
         id="feComposite4677"
         in2="fbSourceGraphic"
         in="colormatrix2"
         operator="in"
         result="composite2" />
    </filter>
  </defs>
  <sodipodi:namedview
     id="base"
     pagecolor="#333333"
     bordercolor="#666666"
     borderopacity="1.0"
     inkscape:pageopacity="0"
     inkscape:pageshadow="2"
     inkscape:zoom="0.25061921"
     inkscape:cx="1893.3343"
     inkscape:cy="-39.998504"
     inkscape:document-units="px"
     inkscape:current-layer="layer3"
     showgrid="false"
     showguides="true"
     inkscape:guide-bbox="true"
     inkscape:window-width="1920"
     inkscape:window-height="1021"
     inkscape:window-x="0"
     inkscape:window-y="27"
     inkscape:window-maximized="1"
     showborder="true"
     units="px">
    <sodipodi:guide
       position="335.16983,817.97392"
       orientation="0,1"
       id="guide4250" />
    <sodipodi:guide
       position="450.88323,-199.50583"
       orientation="0,1"
       id="guide4252" />
  </sodipodi:namedview>
  <metadata
     id="metadata7">
    <rdf:RDF>
      <cc:Work
         rdf:about="">
        <dc:format>image/svg+xml</dc:format>
        <dc:type
           rdf:resource="http://purl.org/dc/dcmitype/StillImage" />
        <dc:title></dc:title>
      </cc:Work>
    </rdf:RDF>
  </metadata>
  <g
     inkscape:groupmode="layer"
     id="layer2"
     inkscape:label="Logo"
     style="display:inline"
     transform="translate(0,598.80317)">
    <path
       style="color:#000000;font-style:normal;font-variant:normal;font-weight:normal;font-stretch:normal;font-size:medium;line-height:normal;font-family:sans-serif;text-indent:0;text-align:start;text-decoration:none;text-decoration-line:none;text-decoration-style:solid;text-decoration-color:#000000;letter-spacing:normal;word-spacing:normal;text-transform:none;direction:ltr;block-progression:tb;writing-mode:lr-tb;baseline-shift:baseline;text-anchor:start;white-space:normal;clip-rule:nonzero;display:inline;overflow:visible;visibility:visible;opacity:1;isolation:auto;mix-blend-mode:normal;color-interpolation:sRGB;color-interpolation-filters:linearRGB;solid-color:#000000;solid-opacity:1;fill:#ffffff;fill-opacity:1;fill-rule:evenodd;stroke:none;stroke-width:10;stroke-linecap:butt;stroke-linejoin:miter;stroke-miterlimit:4;stroke-dasharray:none;stroke-dashoffset:0;stroke-opacity:1;color-rendering:auto;image-rendering:auto;shape-rendering:auto;text-rendering:auto;enable-background:accumulate"
       d="m 1334.9732,-486.63415 -5.4456,705.80699 c -1.3082,2.53166 -8.8519,16.53468 -30.4587,33.10643 -23.6331,18.12596 -62.2201,36.71187 -123.642,36.71187 -60.5646,0 -97.4833,-24.07413 -121.0929,-57.97378 -23.6095,-33.89961 -32.9749,-78.63184 -32.9749,-117.77845 0,-38.344511 12.9928,-80.551191 39.0452,-112.49704104 26.052,-31.94586296 64.5493,-54.14297496 118.6751,-54.14297496 l 76.3438,0 0,-24.036419 -76.3438,0 c -60.8583,0 -107.2324,26.113877 -137.3034,62.98763 -30.071,36.873764 -44.45329,83.996694 -44.45329,127.688805 0,42.88991 9.79489,92.03738 37.28919,131.51489 27.4944,39.47755 73.6195,68.27378 140.815,68.27378 66.3381,0 110.7996,-20.60952 138.2704,-41.6788 27.4708,-21.06929 38.6132,-43.44864 38.6132,-43.44864 l 1.2019,-2.45528 5.4974,-711.89128 z"
       id="path4221"
       inkscape:connector-curvature="0" />
    <path
       style="color:#000000;font-style:normal;font-variant:normal;font-weight:normal;font-stretch:normal;font-size:medium;line-height:normal;font-family:sans-serif;text-indent:0;text-align:start;text-decoration:none;text-decoration-line:none;text-decoration-style:solid;text-decoration-color:#000000;letter-spacing:normal;word-spacing:normal;text-transform:none;direction:ltr;block-progression:tb;writing-mode:lr-tb;baseline-shift:baseline;text-anchor:start;white-space:normal;clip-rule:nonzero;display:inline;overflow:visible;visibility:visible;opacity:1;isolation:auto;mix-blend-mode:normal;color-interpolation:sRGB;color-interpolation-filters:linearRGB;solid-color:#000000;solid-opacity:1;fill:#ffffff;fill-opacity:1;fill-rule:evenodd;stroke:none;stroke-width:10;stroke-linecap:butt;stroke-linejoin:miter;stroke-miterlimit:4;stroke-dasharray:none;stroke-dashoffset:0;stroke-opacity:1;color-rendering:auto;image-rendering:auto;shape-rendering:auto;text-rendering:auto;enable-background:accumulate"
       d="m 1729.6354,-484.11316 0,716.00841 0,0.15503 c 0,0 0.3928,18.34659 5.4082,37.38322 2.5078,9.51836 6.0811,19.41134 12.3328,27.88601 6.2518,8.47459 16.5147,15.70818 28.9516,15.70818 l 0,-24.03642 c -3.9892,0 -6.2796,-1.42425 -9.6098,-5.93869 -3.3302,-4.51446 -6.3717,-11.94042 -8.4267,-19.74087 -4.0978,-15.55377 -4.6211,-31.73619 -4.6244,-31.83417 l 0,-715.59057 z"
       id="path4219"
       inkscape:connector-curvature="0" />
    <path
       style="color:#000000;font-style:normal;font-variant:normal;font-weight:normal;font-stretch:normal;font-size:medium;line-height:normal;font-family:sans-serif;text-indent:0;text-align:start;text-decoration:none;text-decoration-line:none;text-decoration-style:solid;text-decoration-color:#000000;letter-spacing:normal;word-spacing:normal;text-transform:none;direction:ltr;block-progression:tb;writing-mode:lr-tb;baseline-shift:baseline;text-anchor:start;white-space:normal;clip-rule:nonzero;display:inline;overflow:visible;visibility:visible;opacity:1;isolation:auto;mix-blend-mode:normal;color-interpolation:sRGB;color-interpolation-filters:linearRGB;solid-color:#000000;solid-opacity:1;fill:#ffffff;fill-opacity:1;fill-rule:evenodd;stroke:none;stroke-width:10;stroke-linecap:butt;stroke-linejoin:miter;stroke-miterlimit:4;stroke-dasharray:none;stroke-dashoffset:0;stroke-opacity:1;color-rendering:auto;image-rendering:auto;shape-rendering:auto;text-rendering:auto;enable-background:accumulate"
       d="m 1520.5844,-199.48341 0,65.52274 24.0363,0 0,-65.52274 z"
       id="path4217"
       inkscape:connector-curvature="0" />
    <path
       style="color:#000000;font-style:normal;font-variant:normal;font-weight:normal;font-stretch:normal;font-size:medium;line-height:normal;font-family:sans-serif;text-indent:0;text-align:start;text-decoration:none;text-decoration-line:none;text-decoration-style:solid;text-decoration-color:#000000;letter-spacing:normal;word-spacing:normal;text-transform:none;direction:ltr;block-progression:tb;writing-mode:lr-tb;baseline-shift:baseline;text-anchor:start;white-space:normal;clip-rule:nonzero;display:inline;overflow:visible;visibility:visible;opacity:1;isolation:auto;mix-blend-mode:normal;color-interpolation:sRGB;color-interpolation-filters:linearRGB;solid-color:#000000;solid-opacity:1;fill:#ffffff;fill-opacity:1;fill-rule:evenodd;stroke:none;stroke-width:10;stroke-linecap:butt;stroke-linejoin:miter;stroke-miterlimit:4;stroke-dasharray:none;stroke-dashoffset:0;stroke-opacity:1;color-rendering:auto;image-rendering:auto;shape-rendering:auto;text-rendering:auto;enable-background:accumulate"
       d="m 1938.6865,-199.48341 0,65.52274 24.0366,0 0,-65.52274 z"
       id="path4215"
       inkscape:connector-curvature="0" />
    <path
       style="color:#000000;font-style:normal;font-variant:normal;font-weight:normal;font-stretch:normal;font-size:medium;line-height:normal;font-family:sans-serif;text-indent:0;text-align:start;text-decoration:none;text-decoration-line:none;text-decoration-style:solid;text-decoration-color:#000000;letter-spacing:normal;word-spacing:normal;text-transform:none;direction:ltr;block-progression:tb;writing-mode:lr-tb;baseline-shift:baseline;text-anchor:start;white-space:normal;clip-rule:nonzero;display:inline;overflow:visible;visibility:visible;opacity:1;isolation:auto;mix-blend-mode:normal;color-interpolation:sRGB;color-interpolation-filters:linearRGB;solid-color:#000000;solid-opacity:1;fill:#ffffff;fill-opacity:1;fill-rule:evenodd;stroke:none;stroke-width:10;stroke-linecap:butt;stroke-linejoin:miter;stroke-miterlimit:4;stroke-dasharray:none;stroke-dashoffset:0;stroke-opacity:1;color-rendering:auto;image-rendering:auto;shape-rendering:auto;text-rendering:auto;enable-background:accumulate"
       d="m 223.80528,-77.437525 c -77.36833,0 -130.233186,25.005983 -162.785706,61.954814 -32.55251,36.94878 -44.51902,84.61206 -44.51902,128.721621 0,50.18745 5.74329,99.98495 34.8622,138.09672 29.11892,38.11179 80.832456,61.69195 165.142406,61.69195 l 79.3296,0 0,-24.03644 -79.3296,0 c -79.9528,0 -122.234506,-21.08276 -146.044736,-52.24635 -23.8102,-31.16355 -29.92345,-75.24952 -29.92345,-123.50588 0,-39.750121 10.84212,-81.420001 38.51931,-112.83504104 C 106.73346,-31.011188 151.51195,-53.401106 223.80528,-53.401106 c 74.80816,0 108.27124,32.24977 125.82037,64.785675 17.54914,32.53594 17.29965,65.24573 17.29965,65.24573 l 0,0.0751 0,235.292051 24.03645,0 0,-235.071401 c 0,0 0.62236,-38.3916 -20.17744,-76.95410004 C 349.98452,-38.590621 305.87574,-77.437622 223.80528,-77.437622 Z"
       id="path4213"
       inkscape:connector-curvature="0" />
    <path
       style="color:#000000;font-style:normal;font-variant:normal;font-weight:normal;font-stretch:normal;font-size:medium;line-height:normal;font-family:sans-serif;text-indent:0;text-align:start;text-decoration:none;text-decoration-line:none;text-decoration-style:solid;text-decoration-color:#000000;letter-spacing:normal;word-spacing:normal;text-transform:none;direction:ltr;block-progression:tb;writing-mode:lr-tb;baseline-shift:baseline;text-anchor:start;white-space:normal;clip-rule:nonzero;display:inline;overflow:visible;visibility:visible;opacity:1;isolation:auto;mix-blend-mode:normal;color-interpolation:sRGB;color-interpolation-filters:linearRGB;solid-color:#000000;solid-opacity:1;fill:#ffffff;fill-opacity:1;fill-rule:evenodd;stroke:none;stroke-width:10;stroke-linecap:butt;stroke-linejoin:miter;stroke-miterlimit:4;stroke-dasharray:none;stroke-dashoffset:0;stroke-opacity:1;color-rendering:auto;image-rendering:auto;shape-rendering:auto;text-rendering:auto;enable-background:accumulate"
       d="m 2274.6894,-76.634764 c 0,0 -30.588,-0.381727 -61.8702,11.792894 -15.6412,6.08733 -31.8146,15.431881 -44.2937,30.17697 -12.479,14.74506 -20.7924,34.97073896 -20.7924,60.250659 0,47.84255 15.2907,76.540991 39.1201,90.432361 23.8295,13.89138 52.3256,13.43129 78.7569,13.43129 26.3045,0 51.0134,0.88504 67.0437,10.17323 16.0304,9.28819 27.2558,26.39945 26.797,69.52252 -0.2164,20.24612 -6.3811,34.17179 -15.5158,44.98377 -9.1344,10.81198 -21.6754,18.42778 -34.6977,23.60923 -26.045,10.36289 -52.6173,10.52531 -52.6173,10.52531 l -97.1318,0 0,24.03643 97.1318,0 c 0,0 30.3665,0.16104 61.5041,-12.22947 15.5687,-6.19463 31.6811,-15.64162 44.1715,-30.42578 12.4905,-14.78417 20.9229,-34.98788 21.1915,-60.246 0.5098,-47.88495 -14.8258,-76.69273 -38.782,-90.57317 -23.9565,-13.88044 -52.6638,-13.41249 -79.095,-13.41249 -26.3044,0 -50.7326,-0.88045 -66.6494,-10.159171 -15.9168,-9.27871 -27.1913,-26.50248 -27.1913,-69.66806 0,-20.22426 6.0468,-34.02079 15.1027,-44.720897 9.0556,-10.700094 21.5929,-18.221301 34.665,-23.308765 26.144,-10.174888 52.9833,-10.154442 52.9833,-10.154442 l 0.043,0 97.8922,0 0,-24.036419 z"
       id="path4211"
       inkscape:connector-curvature="0" />
    <path
       style="color:#000000;font-style:normal;font-variant:normal;font-weight:normal;font-stretch:normal;font-size:medium;line-height:normal;font-family:sans-serif;text-indent:0;text-align:start;text-decoration:none;text-decoration-line:none;text-decoration-style:solid;text-decoration-color:#000000;letter-spacing:normal;word-spacing:normal;text-transform:none;direction:ltr;block-progression:tb;writing-mode:lr-tb;baseline-shift:baseline;text-anchor:start;white-space:normal;clip-rule:nonzero;display:inline;overflow:visible;visibility:visible;opacity:1;isolation:auto;mix-blend-mode:normal;color-interpolation:sRGB;color-interpolation-filters:linearRGB;solid-color:#000000;solid-opacity:1;fill:#ffffff;fill-opacity:1;fill-rule:evenodd;stroke:none;stroke-width:10;stroke-linecap:butt;stroke-linejoin:miter;stroke-miterlimit:4;stroke-dasharray:none;stroke-dashoffset:0;stroke-opacity:1;color-rendering:auto;image-rendering:auto;shape-rendering:auto;text-rendering:auto;enable-background:accumulate"
       d="m 552.54097,-65.419321 0,299.887201 0.0705,-1.30978 c 0,0 -1.85964,22.51599 15.6894,42.50973 17.54904,19.99378 52.63157,37.35975 120.36514,37.35975 67.7337,0 105.0552,-17.35288 125.1302,-36.61332 10.0376,-9.63022 15.5802,-19.56961 18.525,-27.23814 2.9447,-7.66855 3.4083,-14.04629 3.4083,-14.04629 l 0.014,-0.33332 0,-300.215831 -24.0364,0 0,299.300381 c -2e-4,0.0402 0,1.91801 -1.8216,6.67576 -1.8462,4.80786 -5.4306,11.50586 -12.7318,18.51086 -14.6026,14.00996 -44.8113,29.92346 -108.4877,29.92346 -63.67666,0 -90.64703,-15.90508 -102.3004,-29.18173 -11.65327,-13.27665 -9.86339,-24.03172 -9.86339,-24.03172 l 0.0744,-0.65255 0,-300.544461 z"
       id="path4209"
       inkscape:connector-curvature="0" />
    <path
       style="color:#000000;font-style:normal;font-variant:normal;font-weight:normal;font-stretch:normal;font-size:medium;line-height:normal;font-family:sans-serif;text-indent:0;text-align:start;text-decoration:none;text-decoration-line:none;text-decoration-style:solid;text-decoration-color:#000000;letter-spacing:normal;word-spacing:normal;text-transform:none;direction:ltr;block-progression:tb;writing-mode:lr-tb;baseline-shift:baseline;text-anchor:start;white-space:normal;clip-rule:nonzero;display:inline;overflow:visible;visibility:visible;opacity:1;isolation:auto;mix-blend-mode:normal;color-interpolation:sRGB;color-interpolation-filters:linearRGB;solid-color:#000000;solid-opacity:1;fill:#ffffff;fill-opacity:1;fill-rule:evenodd;stroke:none;stroke-width:10;stroke-linecap:butt;stroke-linejoin:miter;stroke-miterlimit:4;stroke-dasharray:none;stroke-dashoffset:0;stroke-opacity:1;color-rendering:auto;image-rendering:auto;shape-rendering:auto;text-rendering:auto;enable-background:accumulate"
       d="m 1520.5844,-65.419321 0,297.314571 0,0.15503 c 0,0 0.3973,18.34653 5.4128,37.38322 2.5078,9.51836 6.0763,19.41134 12.3282,27.88601 6.2516,8.47459 16.5146,15.70818 28.9515,15.70818 l 0,-24.03642 c -3.9894,0 -6.275,-1.42425 -9.6052,-5.93869 -3.3302,-4.51448 -6.3763,-11.94039 -8.4315,-19.74087 -4.0978,-15.55381 -4.6211,-31.73619 -4.6242,-31.83417 l 0,-296.896745 z"
       id="path4207"
       inkscape:connector-curvature="0" />
    <path
       style="color:#000000;font-style:normal;font-variant:normal;font-weight:normal;font-stretch:normal;font-size:medium;line-height:normal;font-family:sans-serif;text-indent:0;text-align:start;text-decoration:none;text-decoration-line:none;text-decoration-style:solid;text-decoration-color:#000000;letter-spacing:normal;word-spacing:normal;text-transform:none;direction:ltr;block-progression:tb;writing-mode:lr-tb;baseline-shift:baseline;text-anchor:start;white-space:normal;clip-rule:nonzero;display:inline;overflow:visible;visibility:visible;opacity:1;isolation:auto;mix-blend-mode:normal;color-interpolation:sRGB;color-interpolation-filters:linearRGB;solid-color:#000000;solid-opacity:1;fill:#ffffff;fill-opacity:1;fill-rule:evenodd;stroke:none;stroke-width:10;stroke-linecap:butt;stroke-linejoin:miter;stroke-miterlimit:4;stroke-dasharray:none;stroke-dashoffset:0;stroke-opacity:1;color-rendering:auto;image-rendering:auto;shape-rendering:auto;text-rendering:auto;enable-background:accumulate"
       d="m 1938.6865,-65.419321 0,297.314571 0,0.15503 c 0,0 0.3975,18.34653 5.4129,37.38322 2.5078,9.51836 6.0811,19.41134 12.3328,27.88601 6.2517,8.47459 16.51,15.70818 28.947,15.70818 l 0,-24.03642 c -3.9895,0 -6.2749,-1.42425 -9.6052,-5.93869 -3.3302,-4.51448 -6.3764,-11.94039 -8.4314,-19.74087 -4.0979,-15.55381 -4.6165,-31.73619 -4.6195,-31.83417 l 0,-296.896745 z"
       id="path3346"
       inkscape:connector-curvature="0" />
  </g>
  <g
     inkscape:groupmode="layer"
     id="layer4"
     inkscape:label="Alternate"
     style="display:none"
     transform="translate(0,598.80317)">
    <path
       transform="translate(0,-627.1654)"
       style="display:inline;fill:#ffffff;fill-rule:evenodd;stroke:none;stroke-width:10;stroke-linecap:butt;stroke-linejoin:miter;stroke-miterlimit:4;stroke-dasharray:none;stroke-opacity:1"
       d="m 165.54255,1171.4928 c -104.69183,0 -136.61312,66.3647 -136.61312,125.0764 0,68.9225 16.59746,131.4657 131.50313,131.4657 l 8.84453,0 0,-44.5238 -11.94465,0 c -75.02211,0 -85.85967,-40.8334 -85.85967,-85.833 0,-38.3331 20.84086,-81.6641 89.19437,-81.6641 29.22859,0 46.37823,10.8174 56.44454,23.6255 l 56.79108,27.1813 c -1.24382,-18.9337 -12.21595,-95.328 -108.36021,-95.328 z m 65.86486,139.6227 0,116.9194 42.65528,0 0,-96.5034 z"
       id="path4257"
       inkscape:connector-curvature="0"
       sodipodi:nodetypes="sssccsssccsccccc" />
    <path
       transform="translate(0,-627.1654)"
       style="display:inline;opacity:1;fill:#ffffff;fill-rule:evenodd;stroke:none;stroke-width:10;stroke-linecap:butt;stroke-linejoin:miter;stroke-miterlimit:4;stroke-dasharray:none;stroke-opacity:1"
       d="m 158.31743,1243.0516 c -23.18917,0 -39.00902,6.7168 -49.38065,16.7135 2.28161,-0.1789 4.52727,-0.2806 6.72804,-0.2906 1.32028,0 2.62464,0.018 3.9158,0.07 15.4938,0.6296 28.88622,5.3853 40.09095,12.587 14.93966,9.6025 26.0615,23.3575 34.33054,37.2815 8.1773,13.7696 13.61904,27.832 17.03866,38.545 l 0,-56.5379 c 0,0 0.58992,-48.3678 -52.72334,-48.3678 z m -42.58597,27.4293 c -3.4709,0.026 -7.08225,0.285 -10.84642,0.7997 l -5.31525,0.7277 c -5.42843,9.8583 -7.61835,21.097 -7.61835,31.8115 0,2.2502 0.0404,4.485 0.12529,6.6987 7.11388,-1.9728 14.1773,-2.8607 21.07175,-2.8574 2.25192,0 4.48382,0.098 6.69605,0.2825 17.69787,1.4785 33.96832,8.4131 47.79992,16.836 13.35663,8.1336 24.52048,17.728 32.5286,25.494 -3.23929,-9.9614 -8.26109,-22.7734 -15.65787,-35.2288 -7.67384,-12.9218 -17.81839,-25.284 -30.80659,-33.6322 -10.5529,-6.7828 -22.93656,-11.0448 -37.97712,-10.9317 z m -2.60432,48.1998 c -6.60003,-0.025 -13.31416,0.8904 -20.12012,3.0094 1.90201,14.0036 6.84296,26.3983 18.32882,34.7838 13.69122,-4.8538 28.08366,-6.3063 41.53573,-6.0163 13.52592,0.2918 26.17147,2.3524 36.35374,4.6515 -7.2096,-6.6832 -16.52715,-14.3384 -27.31728,-20.9091 -12.836,-7.8165 -27.59436,-13.9809 -42.9805,-15.2661 -1.92326,-0.1607 -3.8571,-0.246 -5.80039,-0.2532 z"
       id="path4282"
       inkscape:connector-curvature="0" />
  </g>
  <g
     inkscape:groupmode="layer"
     id="layer3"
     inkscape:label="Decor"
     style="display:inline"
     transform="translate(0,598.80317)">
    <path
       style="opacity:1;fill:#ffffff;fill-rule:evenodd;stroke:none;stroke-width:10;stroke-linecap:butt;stroke-linejoin:miter;stroke-miterlimit:4;stroke-dasharray:none;stroke-opacity:1"
       d="m 218.89473,-20.703121 c -51.53826,0 -86.69958,14.92597 -109.75067,37.14377 5.07089,-0.39747 10.06107,-0.62607 14.95234,-0.64785 2.93431,-0.012 5.83421,0.0383 8.70382,0.15479 34.43521,1.3994 64.20106,11.96901 89.10377,27.97523 33.2036,21.34155 57.91879,51.91343 76.29687,82.859921 18.17412,30.60307 30.26657,61.85759 37.86673,85.66731 l 0,-125.660721 c 0,0 1.31667,-107.492576 -117.17286,-107.492576 z m -94.65279,60.95954 c -7.71413,0.0579 -15.74094,0.6353 -24.10685,1.77928 l -11.811646,1.61493 c -12.06478,21.91014 -16.92877,46.88734 -16.92877,70.700911 0,5.00063 0.0884,9.96659 0.27698,14.88662 15.81069,-4.38478 31.505746,-6.35918 46.828766,-6.35182 5.00495,0.003 9.9699,0.21849 14.88662,0.62908 39.33379,3.28566 75.49345,18.70094 106.23443,37.42077 29.68526,18.07694 54.49886,39.39936 72.29706,56.65926 -7.19937,-22.13946 -18.36174,-50.6147 -34.80121,-78.29675 C 260.06209,110.57971 237.51288,83.104939 208.64637,64.551069 185.19241,49.476049 157.6698,40.005009 124.24194,40.256419 Z m -5.78846,107.121711 c -14.66869,-0.0546 -29.589836,1.98053 -44.716196,6.68982 4.22726,31.12332 15.21237,58.67404 40.739866,77.3109 30.42895,-10.78771 62.41274,-14.01965 92.3102,-13.37497 30.06154,0.64821 58.16868,5.23216 80.79898,10.34224 -16.02345,-14.85341 -36.7342,-31.86853 -60.71546,-46.47198 -28.52822,-17.37239 -61.33008,-31.0715 -95.52598,-33.92797 -4.2745,-0.35704 -8.5724,-0.55197 -12.89141,-0.56804 z"
       id="path4311"
       inkscape:connector-curvature="0" />
  </g>
</svg>
